# xmcd CD database file
#
# Track frame offsets:
#	150
#	17845
#	39863
#	58748
#	82310
#	113650
#	135188
#	159286
#	183283
#
# Disc length: 3002 seconds
#
# Revision: 0
# Processed by: cddbd v1.4PL0 Copyright (c) Steve Scherf et al.
# Submitted via: CDex 1.50Beta7
#
DISCID=660bb809
DTITLE=John Alberti - Implication and Innuendo
DYEAR=1996
DGENRE=Jazz
TTITLE0=Chompsky
TTITLE1=Josie
TTITLE2=Just Between Us
TTITLE3=Los Pericos
TTITLE4=Implication and Innuendo
TTITLE5=Short Denim Skirts
TTITLE6=Travelin'
TTITLE7=Apogee
TTITLE8=Shotgun Down The Avalanche
EXTD=YEAR: 1996
EXTT0=
EXTT1=
EXTT2=
EXTT3=
EXTT4=
EXTT5=
EXTT6=
EXTT7=
EXTT8=
PLAYORDER=
